<svg xmlns="http://www.w3.org/2000/svg" xmlns:xlink="http://www.w3.org/1999/xlink" version="1.1" x="0px" y="0px" viewBox="0 0 48 60" style="enable-background:new 0 0 48 48;" xml:space="preserve"><path d="M48,30v12c0,0.552-0.448,1-1,1H27c-0.552,0-1-0.448-1-1V30c0-4.082,3.076-7.454,7.03-7.935C30.056,20.594,28,17.536,28,14  c0-4.962,4.038-9,9-9s9,4.038,9,9c0,3.536-2.056,6.594-5.03,8.065C44.924,22.546,48,25.918,48,30z M14.97,22.065  C17.944,20.594,20,17.536,20,14c0-4.962-4.038-9-9-9s-9,4.038-9,9c0,3.536,2.056,6.594,5.03,8.065C3.076,22.546,0,25.918,0,30v12  c0,0.552,0.448,1,1,1h20c0.552,0,1-0.448,1-1V30C22,25.918,18.924,22.546,14.97,22.065z"/><text x="0" y="63" fill="#000000" font-size="5px" font-weight="bold" font-family="'Helvetica Neue', Helvetica, Arial-Unicode, Arial, Sans-serif">Created by AbtoCreative</text><text x="0" y="68" fill="#000000" font-size="5px" font-weight="bold" font-family="'Helvetica Neue', Helvetica, Arial-Unicode, Arial, Sans-serif">from the Noun Project</text></svg>