<svg xmlns="http://www.w3.org/2000/svg" xmlns:xlink="http://www.w3.org/1999/xlink" version="1.1" x="0px" y="0px" viewBox="0 0 100 125" style="enable-background:new 0 0 100 100;" xml:space="preserve"><path d="M94.1,50.9c-0.4-0.9-1.3-1.6-2.4-1.6H13.5l21.6-24.2c0.9-1.1,0.8-2.7-0.2-3.6c-1.1-0.9-2.7-0.8-3.6,0.2L5.9,50.2  c-0.5,0.6-0.7,1.4-0.6,2.1c0,0.1,0,0.1,0,0.2c0,0.2,0.1,0.3,0.1,0.5c0,0,0,0,0,0c0.1,0.2,0.2,0.3,0.3,0.4c0,0.1,0.1,0.1,0.1,0.2  c0,0,0,0,0,0l25.3,28.5c0.5,0.6,1.2,0.9,1.9,0.9c0.6,0,1.2-0.2,1.7-0.6c1.1-0.9,1.2-2.6,0.2-3.6L13.6,54.5h78.2  c1.4,0,2.6-1.1,2.6-2.6C94.3,51.6,94.2,51.2,94.1,50.9z"/><text x="0" y="115" fill="#000000" font-size="5px" font-weight="bold" font-family="'Helvetica Neue', Helvetica, Arial-Unicode, Arial, Sans-serif">Created by Morten Halvorsen</text><text x="0" y="120" fill="#000000" font-size="5px" font-weight="bold" font-family="'Helvetica Neue', Helvetica, Arial-Unicode, Arial, Sans-serif">from the Noun Project</text></svg>